<svg width="130" height="130" viewBox="0 0 130 130" fill="none" xmlns="http://www.w3.org/2000/svg">
<mask id="path-1-inside-1_1_2" fill="white">
<path d="M86 109C86 114.57 83.8402 119.911 79.9957 123.849C76.1512 127.788 70.9369 130 65.5 130C60.0631 130 54.8488 127.788 51.0043 123.849C47.1598 119.911 45 114.57 45 109L65.5 109H86Z"/>
</mask>
<path d="M86 109C86 114.57 83.8402 119.911 79.9957 123.849C76.1512 127.788 70.9369 130 65.5 130C60.0631 130 54.8488 127.788 51.0043 123.849C47.1598 119.911 45 114.57 45 109L65.5 109H86Z" stroke="black" stroke-width="12" mask="url(#path-1-inside-1_1_2)"/>
<mask id="path-2-inside-2_1_2" fill="white">
<path d="M23.0886 44.2895C21.4771 19.887 42.0769 0 65.5 0C88.9231 0 109.523 19.887 107.911 44.2895C106.698 62.6599 102.049 68.9137 95.5862 77.6077C95.2027 78.1236 94.8128 78.6481 94.4168 79.1842C87.3483 88.7553 86.0631 102 86.0631 102H44.9369C44.9369 102 43.6517 88.7553 36.5832 79.1842C36.1872 78.6481 35.7973 78.1236 35.4138 77.6077C28.9508 68.9137 24.3018 62.6599 23.0886 44.2895Z"/>
</mask>
<path d="M23.0886 44.2895L29.0756 43.8941L23.0886 44.2895ZM107.911 44.2895L101.924 43.8941L101.924 43.8941L107.911 44.2895ZM95.5862 77.6077L90.7709 74.0281L90.7709 74.0281L95.5862 77.6077ZM94.4168 79.1842L99.2433 82.7487L99.2433 82.7487L94.4168 79.1842ZM86.0631 102V108H91.5091L92.035 102.579L86.0631 102ZM44.9369 102L38.965 102.579L39.4909 108H44.9369V102ZM36.5832 79.1842L31.7567 82.7487L31.7567 82.7487L36.5832 79.1842ZM35.4138 77.6077L40.2291 74.0281L40.2291 74.0281L35.4138 77.6077ZM65.5 -6C38.8894 -6 15.2433 16.5457 17.1017 44.6849L29.0756 43.8941C27.7108 23.2284 45.2644 6 65.5 6V-6ZM65.5 6C85.7356 6 103.289 23.2284 101.924 43.8941L113.898 44.6849C115.757 16.5457 92.1106 -6 65.5 -6V6ZM101.924 43.8941C101.348 52.6154 99.9835 58.0618 98.2033 62.212C96.3993 66.4177 94.0459 69.6226 90.7709 74.0281L100.401 81.1873C103.589 76.8987 106.792 72.6298 109.232 66.9425C111.695 61.1997 113.261 54.334 113.898 44.6849L101.924 43.8941ZM90.7709 74.0281C90.3882 74.5429 89.9928 75.0749 89.5904 75.6198L99.2433 82.7487C99.6328 82.2213 100.017 81.7043 100.401 81.1873L90.7709 74.0281ZM89.5904 75.6197C85.4289 81.2546 83.0939 87.7643 81.7928 92.6318C81.1313 95.1063 80.7116 97.2543 80.4553 98.7985C80.3268 99.5725 80.2385 100.2 80.1811 100.647C80.1523 100.871 80.1312 101.05 80.1166 101.18C80.1093 101.245 80.1036 101.298 80.0994 101.339C80.0973 101.359 80.0956 101.376 80.0942 101.389C80.0935 101.396 80.0929 101.402 80.0924 101.407C80.0922 101.41 80.0919 101.412 80.0917 101.415C80.0916 101.416 80.0915 101.417 80.0914 101.418C80.0913 101.419 80.0911 101.421 86.0631 102C92.035 102.579 92.0349 102.581 92.0348 102.582C92.0348 102.582 92.0346 102.584 92.0346 102.584C92.0344 102.586 92.0343 102.587 92.0342 102.588C92.034 102.59 92.0339 102.591 92.0339 102.591C92.0338 102.592 92.034 102.59 92.0345 102.585C92.0356 102.574 92.038 102.552 92.0419 102.517C92.0496 102.449 92.063 102.334 92.0832 102.177C92.1236 101.863 92.1909 101.381 92.2933 100.763C92.4989 99.5252 92.8423 97.7638 93.3857 95.7306C94.4944 91.5831 96.3363 86.6849 99.2433 82.7487L89.5904 75.6197ZM31.7567 82.7487C34.6637 86.6849 36.5056 91.5831 37.6143 95.7306C38.1577 97.7638 38.5011 99.5252 38.7066 100.763C38.8091 101.381 38.8764 101.863 38.9168 102.177C38.937 102.334 38.9504 102.449 38.9581 102.517C38.962 102.552 38.9644 102.574 38.9655 102.585C38.966 102.59 38.9662 102.592 38.9661 102.591C38.9661 102.591 38.966 102.59 38.9658 102.588C38.9657 102.587 38.9656 102.586 38.9654 102.584C38.9654 102.584 38.9652 102.582 38.9652 102.582C38.9651 102.581 38.965 102.579 44.9369 102C50.9089 101.421 50.9087 101.419 50.9086 101.418C50.9085 101.417 50.9084 101.416 50.9083 101.415C50.9081 101.412 50.9078 101.41 50.9076 101.407C50.9071 101.402 50.9065 101.396 50.9058 101.389C50.9044 101.376 50.9027 101.359 50.9006 101.339C50.8964 101.298 50.8907 101.245 50.8834 101.18C50.8688 101.05 50.8477 100.871 50.8189 100.647C50.7615 100.2 50.6732 99.5725 50.5447 98.7985C50.2884 97.2543 49.8687 95.1063 49.2072 92.6318C47.9061 87.7643 45.5711 81.2546 41.4096 75.6197L31.7567 82.7487ZM30.5986 81.1873C30.9829 81.7043 31.3673 82.2213 31.7567 82.7487L41.4096 75.6197C41.0072 75.0748 40.6117 74.5429 40.2291 74.0281L30.5986 81.1873ZM17.1017 44.6849C17.7389 54.334 19.3051 61.1997 21.7684 66.9425C24.2079 72.6297 27.4105 76.8987 30.5986 81.1873L40.2291 74.0281C36.9541 69.6226 34.6007 66.4177 32.7967 62.212C31.0165 58.0618 29.6516 52.6154 29.0756 43.8941L17.1017 44.6849ZM86.0631 96H44.9369V108H86.0631V96Z" fill="black" mask="url(#path-2-inside-2_1_2)"/>
<path d="M42 38.4138C42 32.4693 44.3614 26.7682 48.5648 22.5648C52.7683 18.3614 58.4693 16 64.4138 16C66.3944 16 68 17.6056 68 19.5862C68 21.5668 66.3944 23.1724 64.4138 23.1724C64.1013 23.1724 63.7982 23.1324 63.5092 23.0573C59.7592 23.2781 56.2073 24.8654 53.5363 27.5363C50.8654 30.2073 49.2781 33.7592 49.0573 37.5092C49.1324 37.7982 49.1724 38.1013 49.1724 38.4138C49.1724 40.3944 47.5668 42 45.5862 42C43.6056 42 42 40.3944 42 38.4138Z" fill="black"/>
</svg>
