<svg width="130" height="130" viewBox="0 0 130 130" fill="none" xmlns="http://www.w3.org/2000/svg">
<path d="M86 109C86 114.57 83.8402 119.911 79.9957 123.849C76.1512 127.788 70.9369 130 65.5 130C60.0631 130 54.8488 127.788 51.0043 123.849C47.1598 119.911 45 114.57 45 109L65.5 109H86Z" fill="black"/>
<path fill-rule="evenodd" clip-rule="evenodd" d="M65.5 0C42.0769 0 21.4771 19.887 23.0886 44.2895C24.3018 62.6599 28.9508 68.9137 35.4138 77.6077L35.4141 77.6081C35.7975 78.1238 36.1873 78.6482 36.5832 79.1842C43.6517 88.7553 44.9369 102 44.9369 102H86.0631C86.0631 102 87.3483 88.7553 94.4168 79.1842C94.8128 78.6481 95.2027 78.1236 95.5862 77.6077C102.049 68.9137 106.698 62.6599 107.911 44.2895C109.523 19.887 88.9231 0 65.5 0ZM48.5648 22.5648C44.3614 26.7682 42 32.4693 42 38.4138C42 40.3944 43.6056 42 45.5862 42C47.5668 42 49.1724 40.3944 49.1724 38.4138C49.1724 38.1013 49.1324 37.7982 49.0573 37.5092C49.2781 33.7592 50.8654 30.2073 53.5363 27.5363C56.2073 24.8654 59.7592 23.2781 63.5092 23.0573C63.7982 23.1324 64.1013 23.1724 64.4138 23.1724C66.3944 23.1724 68 21.5668 68 19.5862C68 17.6056 66.3944 16 64.4138 16C58.4693 16 52.7683 18.3614 48.5648 22.5648Z" fill="black"/>
</svg>
