<svg width="130" height="130" viewBox="0 0 130 130" fill="none" xmlns="http://www.w3.org/2000/svg">
<g clip-path="url(#clip0_2_17)">
<path fill-rule="evenodd" clip-rule="evenodd" d="M87.0289 59C86.7758 58.0707 86.4636 57.1564 86.0935 56.2628C84.9461 53.4928 83.2643 50.9759 81.1442 48.8558C79.0241 46.7357 76.5072 45.0539 73.7372 43.9065C70.9672 42.7591 67.9983 42.1686 65 42.1686C62.0017 42.1686 59.0328 42.7591 56.2628 43.9065C53.4928 45.0539 50.9758 46.7357 48.8557 48.8558C46.7357 50.9758 45.0539 53.4928 43.9065 56.2628C43.5364 57.1564 43.2242 58.0707 42.9711 59H0.277496C0.878101 52.5212 2.4492 46.1578 4.94782 40.1256C8.21438 32.2394 13.0022 25.0739 19.038 19.0381C25.0739 13.0022 32.2394 8.21438 40.1256 4.94783C48.0117 1.68127 56.4641 0 65 0C73.5359 0 81.9883 1.68128 89.8744 4.94783C97.7606 8.21439 104.926 13.0023 110.962 19.0381C116.998 25.0739 121.786 32.2394 125.052 40.1256C127.551 46.1578 129.122 52.5213 129.722 59H87.0289Z" fill="black"/>
<path fill-rule="evenodd" clip-rule="evenodd" d="M0.377991 72C1.04237 78.1333 2.57786 84.1529 4.9478 89.8744C8.21436 97.7606 13.0022 104.926 19.038 110.962C25.0738 116.998 32.2394 121.786 40.1255 125.052C48.0117 128.319 56.4641 130 65 130C73.5359 130 81.9882 128.319 89.8744 125.052C97.7606 121.786 104.926 116.998 110.962 110.962C116.998 104.926 121.786 97.7606 125.052 89.8744C127.422 84.1529 128.958 78.1333 129.622 72H86.7318C86.5429 72.5865 86.33 73.1661 86.0934 73.7372C84.9461 76.5072 83.2643 79.0241 81.1442 81.1442C79.0241 83.2643 76.5072 84.9461 73.7372 86.0935C70.9671 87.2409 67.9982 87.8314 65 87.8314C62.0017 87.8314 59.0328 87.2409 56.2628 86.0935C53.4927 84.9461 50.9758 83.2643 48.8557 81.1442C46.7356 79.0241 45.0539 76.5072 43.9065 73.7372C43.6699 73.1661 43.4571 72.5865 43.2681 72H0.377991Z" fill="black"/>
<circle cx="65.5" cy="65.5" r="12.5" fill="black"/>
</g>
<defs>
<clipPath id="clip0_2_17">
<rect width="130" height="130" fill="white"/>
</clipPath>
</defs>
</svg>
