<svg width="130" height="130" viewBox="0 0 130 130" fill="none" xmlns="http://www.w3.org/2000/svg">
<g clip-path="url(#clip0_2_17)">
<mask id="path-1-inside-1_2_17" fill="white">
<path fill-rule="evenodd" clip-rule="evenodd" d="M87.0289 59C86.7758 58.0707 86.4636 57.1564 86.0935 56.2628C84.9461 53.4928 83.2643 50.9759 81.1442 48.8558C79.0241 46.7357 76.5072 45.0539 73.7372 43.9065C70.9672 42.7591 67.9983 42.1686 65 42.1686C62.0017 42.1686 59.0328 42.7591 56.2628 43.9065C53.4928 45.0539 50.9758 46.7357 48.8557 48.8558C46.7357 50.9758 45.0539 53.4928 43.9065 56.2628C43.5364 57.1564 43.2242 58.0707 42.9711 59H0.277496C0.878101 52.5212 2.4492 46.1578 4.94782 40.1256C8.21438 32.2394 13.0022 25.0739 19.038 19.0381C25.0739 13.0022 32.2394 8.21438 40.1256 4.94783C48.0117 1.68127 56.4641 0 65 0C73.5359 0 81.9883 1.68128 89.8744 4.94783C97.7606 8.21439 104.926 13.0023 110.962 19.0381C116.998 25.0739 121.786 32.2394 125.052 40.1256C127.551 46.1578 129.122 52.5213 129.722 59H87.0289Z"/>
</mask>
<path d="M87.0289 59L81.2398 60.5768L82.4445 65H87.0289V59ZM86.0935 56.2628L91.6367 53.9667L91.6367 53.9667L86.0935 56.2628ZM81.1442 48.8558L76.9016 53.0984L76.9016 53.0984L81.1442 48.8558ZM73.7372 43.9065L71.4411 49.4498L71.4411 49.4498L73.7372 43.9065ZM65 42.1686L65 48.1686H65V42.1686ZM48.8557 48.8558L53.0984 53.0984L53.0984 53.0984L48.8557 48.8558ZM43.9065 56.2628L49.4498 58.5589L49.4498 58.5589L43.9065 56.2628ZM42.9711 59V65H47.5554L48.7602 60.5768L42.9711 59ZM0.277496 59L-5.69689 58.4462L-6.30445 65H0.277496V59ZM4.94782 40.1256L10.4911 42.4217L10.4911 42.4217L4.94782 40.1256ZM19.038 19.0381L14.7954 14.7954L14.7954 14.7954L19.038 19.0381ZM40.1256 4.94783L37.8295 -0.59545L37.8295 -0.59545L40.1256 4.94783ZM89.8744 4.94783L92.1705 -0.595443L92.1705 -0.595443L89.8744 4.94783ZM110.962 19.0381L106.719 23.2807L106.719 23.2807L110.962 19.0381ZM125.052 40.1256L130.595 37.8295L130.595 37.8295L125.052 40.1256ZM129.722 59V65H136.304L135.697 58.4462L129.722 59ZM92.818 57.4232C92.4984 56.2497 92.1041 55.0951 91.6367 53.9667L80.5502 58.5589C80.8231 59.2177 81.0532 59.8917 81.2398 60.5768L92.818 57.4232ZM91.6367 53.9667C90.1878 50.4687 88.0641 47.2904 85.3869 44.6131L76.9016 53.0984C78.4645 54.6613 79.7043 56.5168 80.5502 58.5589L91.6367 53.9667ZM85.3869 44.6131C82.7096 41.9359 79.5313 39.8122 76.0333 38.3633L71.4411 49.4498C73.4832 50.2957 75.3387 51.5355 76.9016 53.0984L85.3869 44.6131ZM76.0333 38.3633C72.5353 36.9143 68.7862 36.1686 65 36.1686V48.1686C67.2103 48.1686 69.399 48.604 71.4411 49.4498L76.0333 38.3633ZM65 36.1686C61.2138 36.1686 57.4647 36.9143 53.9667 38.3633L58.5589 49.4498C60.601 48.604 62.7897 48.1686 65 48.1686L65 36.1686ZM53.9667 38.3633C50.4687 39.8122 47.2903 41.9359 44.6131 44.6131L53.0984 53.0984C54.6613 51.5355 56.5168 50.2957 58.5589 49.4498L53.9667 38.3633ZM44.6131 44.6131C41.9359 47.2904 39.8122 50.4687 38.3632 53.9667L49.4498 58.5589C50.2957 56.5168 51.5354 54.6613 53.0984 53.0984L44.6131 44.6131ZM38.3632 53.9667C37.8958 55.0951 37.5016 56.2497 37.182 57.4232L48.7602 60.5768C48.9468 59.8917 49.1769 59.2177 49.4498 58.5589L38.3632 53.9667ZM0.277496 65H42.9711V53H0.277496V65ZM6.25188 59.5538C6.79704 53.6731 8.22312 47.8971 10.4911 42.4217L-0.595459 37.8295C-3.32473 44.4185 -5.04084 51.3694 -5.69689 58.4462L6.25188 59.5538ZM10.4911 42.4217C13.4561 35.2635 17.802 28.7594 23.2807 23.2807L14.7954 14.7954C8.20245 21.3884 2.97263 29.2154 -0.595459 37.8295L10.4911 42.4217ZM23.2807 23.2807C28.7593 17.802 35.2635 13.4561 42.4217 10.4911L37.8295 -0.59545C29.2154 2.97263 21.3884 8.20245 14.7954 14.7954L23.2807 23.2807ZM42.4217 10.4911C49.5799 7.52608 57.252 6 65 6V-6C55.6761 -6 46.4436 -4.16353 37.8295 -0.59545L42.4217 10.4911ZM65 6C72.748 6 80.4201 7.52608 87.5783 10.4911L92.1705 -0.595443C83.5564 -4.16353 74.3238 -6 65 -6V6ZM87.5783 10.4911C94.7365 13.4561 101.241 17.802 106.719 23.2807L115.205 14.7954C108.612 8.20247 100.785 2.97264 92.1705 -0.595443L87.5783 10.4911ZM106.719 23.2807C112.198 28.7594 116.544 35.2635 119.509 42.4217L130.595 37.8295C127.027 29.2154 121.798 21.3884 115.205 14.7954L106.719 23.2807ZM119.509 42.4217C121.777 47.8971 123.203 53.6731 123.748 59.5538L135.697 58.4462C135.041 51.3694 133.325 44.4185 130.595 37.8295L119.509 42.4217ZM87.0289 65H129.722V53H87.0289V65Z" fill="black" mask="url(#path-1-inside-1_2_17)"/>
<mask id="path-3-inside-2_2_17" fill="white">
<path fill-rule="evenodd" clip-rule="evenodd" d="M0.377991 72C1.04237 78.1333 2.57786 84.1529 4.9478 89.8744C8.21436 97.7606 13.0022 104.926 19.038 110.962C25.0738 116.998 32.2394 121.786 40.1255 125.052C48.0117 128.319 56.4641 130 65 130C73.5359 130 81.9882 128.319 89.8744 125.052C97.7606 121.786 104.926 116.998 110.962 110.962C116.998 104.926 121.786 97.7606 125.052 89.8744C127.422 84.1529 128.958 78.1333 129.622 72H86.7318C86.5429 72.5865 86.33 73.1661 86.0934 73.7372C84.9461 76.5072 83.2643 79.0241 81.1442 81.1442C79.0241 83.2643 76.5072 84.9461 73.7372 86.0935C70.9671 87.2409 67.9982 87.8314 65 87.8314C62.0017 87.8314 59.0328 87.2409 56.2628 86.0935C53.4927 84.9461 50.9758 83.2643 48.8557 81.1442C46.7356 79.0241 45.0539 76.5072 43.9065 73.7372C43.6699 73.1661 43.4571 72.5865 43.2681 72H0.377991Z"/>
</mask>
<path d="M4.9478 89.8744L-0.595477 92.1705L-0.595476 92.1705L4.9478 89.8744ZM0.377991 72V66H-6.30705L-5.58711 72.6462L0.377991 72ZM19.038 110.962L23.2807 106.719L23.2807 106.719L19.038 110.962ZM40.1255 125.052L37.8294 130.595L37.8294 130.595L40.1255 125.052ZM125.052 89.8744L130.595 92.1705L130.595 92.1705L125.052 89.8744ZM129.622 72L135.587 72.6462L136.307 66H129.622V72ZM86.7318 72V66H82.3609L81.0208 70.1604L86.7318 72ZM86.0934 73.7372L91.6367 76.0333L91.6367 76.0333L86.0934 73.7372ZM48.8557 81.1442L44.6131 85.3869L44.6131 85.3869L48.8557 81.1442ZM43.9065 73.7372L49.4498 71.4411L49.4498 71.4411L43.9065 73.7372ZM43.2681 72L48.9792 70.1604L47.6391 66H43.2681V72ZM10.4911 87.5783C8.3399 82.3849 6.94615 76.921 6.3431 71.3538L-5.58711 72.6462C-4.86141 79.3456 -3.18419 85.9208 -0.595477 92.1705L10.4911 87.5783ZM23.2807 106.719C17.802 101.241 13.4561 94.7365 10.4911 87.5783L-0.595476 92.1705C2.97261 100.785 8.20243 108.612 14.7954 115.205L23.2807 106.719ZM42.4216 119.509C35.2634 116.544 28.7593 112.198 23.2807 106.719L14.7954 115.205C21.3883 121.798 29.2153 127.027 37.8294 130.595L42.4216 119.509ZM65 124C57.252 124 49.5799 122.474 42.4216 119.509L37.8294 130.595C46.4436 134.164 55.6761 136 65 136V124ZM87.5783 119.509C80.4201 122.474 72.748 124 65 124V136C74.3238 136 83.5564 134.164 92.1705 130.595L87.5783 119.509ZM106.719 106.719C101.241 112.198 94.7365 116.544 87.5783 119.509L92.1705 130.595C100.785 127.027 108.612 121.798 115.205 115.205L106.719 106.719ZM119.509 87.5783C116.544 94.7365 112.198 101.241 106.719 106.719L115.205 115.205C121.798 108.612 127.027 100.785 130.595 92.1705L119.509 87.5783ZM123.657 71.3538C123.054 76.921 121.66 82.3849 119.509 87.5783L130.595 92.1705C133.184 85.9208 134.861 79.3456 135.587 72.6462L123.657 71.3538ZM129.622 66H86.7318V78H129.622V66ZM91.6367 76.0333C91.9354 75.3121 92.2043 74.5802 92.4428 73.8396L81.0208 70.1604C80.8815 70.5928 80.7245 71.0201 80.5501 71.4411L91.6367 76.0333ZM85.3869 85.3869C88.0641 82.7096 90.1878 79.5313 91.6367 76.0333L80.5502 71.4411C79.7043 73.4832 78.4645 75.3387 76.9016 76.9016L85.3869 85.3869ZM76.0333 91.6367C79.5313 90.1878 82.7096 88.0641 85.3869 85.3869L76.9016 76.9016C75.3386 78.4645 73.4831 79.7043 71.4411 80.5502L76.0333 91.6367ZM65 93.8314C68.7862 93.8314 72.5353 93.0857 76.0333 91.6367L71.4411 80.5502C69.399 81.396 67.2103 81.8314 65 81.8314V93.8314ZM53.9667 91.6367C57.4647 93.0857 61.2138 93.8314 65 93.8314V81.8314C62.7896 81.8314 60.601 81.396 58.5589 80.5502L53.9667 91.6367ZM44.6131 85.3869C47.2903 88.0641 50.4687 90.1878 53.9667 91.6367L58.5589 80.5502C56.5168 79.7043 54.6613 78.4645 53.0984 76.9016L44.6131 85.3869ZM38.3632 76.0333C39.8121 79.5313 41.9359 82.7096 44.6131 85.3869L53.0984 76.9016C51.5354 75.3387 50.2956 73.4832 49.4498 71.4411L38.3632 76.0333ZM37.5571 73.8396C37.7957 74.5802 38.0645 75.3121 38.3632 76.0333L49.4498 71.4411C49.2754 71.0201 49.1184 70.5928 48.9792 70.1604L37.5571 73.8396ZM43.2681 66H0.377991V78H43.2681V66Z" fill="black" mask="url(#path-3-inside-2_2_17)"/>
<circle cx="65.5" cy="65.5" r="9.5" stroke="black" stroke-width="6"/>
</g>
<defs>
<clipPath id="clip0_2_17">
<rect width="130" height="130" fill="white"/>
</clipPath>
</defs>
</svg>
